<svg width="1433" height="539" viewBox="0 0 1433 539" fill="none" xmlns="http://www.w3.org/2000/svg">
<path d="M203.558 526H205.382V502.792H211.838V501.424H205.382V491.224C205.382 489.464 205.75 488.088 206.486 487.096C207.222 486.088 208.294 485.584 209.702 485.584C210.87 485.584 211.83 485.896 212.582 486.52L213.23 485.176C212.238 484.392 210.958 484 209.39 484C205.502 484 203.558 486.48 203.558 491.44V501.424H201.422V502.792H203.558V526ZM254.357 526.768C257.749 526.768 260.165 525.952 261.605 524.32C263.045 522.688 263.765 519.92 263.765 516.016V501.424H261.941V515.872C261.941 519.2 261.357 521.576 260.189 523C259.021 524.424 257.077 525.136 254.357 525.136C251.621 525.136 249.669 524.424 248.501 523C247.349 521.576 246.773 519.2 246.773 515.872V501.424H244.949V516.016C244.949 519.92 245.661 522.688 247.085 524.32C248.525 525.952 250.949 526.768 254.357 526.768ZM300.146 526H301.97V484.72H300.146V526ZM338.717 526H340.541V484.72H338.717V526ZM421.157 526.768C422.725 526.768 424.133 526.448 425.381 525.808C426.645 525.152 427.645 524.232 428.381 523.048C429.117 521.864 429.485 520.48 429.485 518.896C429.485 517.456 429.181 516.328 428.573 515.512C427.965 514.68 427.101 513.992 425.981 513.448C424.861 512.888 423.541 512.32 422.021 511.744C420.933 511.328 419.949 510.92 419.069 510.52C418.189 510.104 417.493 509.6 416.981 509.008C416.469 508.416 416.213 507.648 416.213 506.704C416.213 505.36 416.701 504.272 417.677 503.44C418.653 502.592 419.909 502.168 421.445 502.168C423.893 502.168 425.725 503.264 426.941 505.456L428.141 504.592C427.421 503.344 426.477 502.376 425.309 501.688C424.157 501 422.869 500.656 421.445 500.656C420.133 500.656 418.949 500.92 417.893 501.448C416.853 501.976 416.029 502.696 415.421 503.608C414.813 504.52 414.509 505.56 414.509 506.728C414.509 507.976 414.837 509 415.493 509.8C416.165 510.6 417.005 511.264 418.013 511.792C419.037 512.304 420.077 512.768 421.133 513.184C422.541 513.728 423.733 514.224 424.709 514.672C425.701 515.104 426.453 515.64 426.965 516.28C427.493 516.92 427.757 517.816 427.757 518.968C427.757 520.248 427.453 521.36 426.845 522.304C426.237 523.248 425.429 523.976 424.421 524.488C423.413 524.984 422.317 525.232 421.133 525.232C419.469 525.232 417.989 524.736 416.693 523.744C415.413 522.752 414.445 521.36 413.789 519.568L412.469 520.312C413.221 522.376 414.349 523.968 415.853 525.088C417.373 526.208 419.141 526.768 421.157 526.768ZM468.821 526.768C470.165 526.768 471.293 526.448 472.205 525.808L471.749 524.368C471.029 524.912 470.149 525.184 469.109 525.184C468.005 525.184 467.157 524.776 466.565 523.96C465.989 523.128 465.701 521.944 465.701 520.408V502.792H472.133V501.424H465.701V492.256H463.877V501.424H461.717V502.792H463.877V520.456C463.877 522.456 464.309 524.008 465.173 525.112C466.037 526.216 467.253 526.768 468.821 526.768ZM516.591 526.768C518.975 526.768 521.127 526.168 523.047 524.968C524.967 523.752 526.431 522.08 527.439 519.952V526H529.263V501.424H527.439V507.448C526.527 505.336 525.095 503.68 523.143 502.48C521.207 501.264 519.023 500.656 516.591 500.656C514.255 500.656 512.159 501.224 510.303 502.36C508.463 503.48 507.007 505.024 505.935 506.992C504.863 508.944 504.327 511.184 504.327 513.712C504.327 516.224 504.863 518.464 505.935 520.432C507.007 522.4 508.471 523.952 510.327 525.088C512.183 526.208 514.271 526.768 516.591 526.768ZM516.855 525.112C514.791 525.112 512.951 524.624 511.335 523.648C509.719 522.672 508.447 521.328 507.519 519.616C506.591 517.888 506.127 515.92 506.127 513.712C506.127 511.488 506.583 509.52 507.495 507.808C508.423 506.096 509.695 504.752 511.311 503.776C512.927 502.8 514.775 502.312 516.855 502.312C518.951 502.312 520.807 502.8 522.423 503.776C524.039 504.752 525.303 506.096 526.215 507.808C527.127 509.52 527.583 511.488 527.583 513.712C527.583 515.92 527.119 517.888 526.191 519.616C525.279 521.328 524.015 522.672 522.399 523.648C520.799 524.624 518.951 525.112 516.855 525.112ZM577.399 526.768C579.031 526.768 580.567 526.512 582.007 526C583.447 525.504 584.735 524.816 585.871 523.936L584.863 522.688C582.863 524.32 580.415 525.136 577.519 525.136C575.279 525.136 573.287 524.64 571.543 523.648C569.815 522.656 568.463 521.296 567.487 519.568C566.511 517.84 566.023 515.888 566.023 513.712C566.023 511.504 566.511 509.544 567.487 507.832C568.479 506.104 569.839 504.752 571.567 503.776C573.295 502.784 575.271 502.288 577.495 502.288C580.375 502.288 582.847 503.104 584.911 504.736L585.871 503.488C584.751 502.592 583.463 501.896 582.007 501.4C580.567 500.904 579.031 500.656 577.399 500.656C574.919 500.656 572.687 501.216 570.703 502.336C568.719 503.44 567.143 504.976 565.975 506.944C564.823 508.912 564.247 511.168 564.247 513.712C564.247 516.24 564.831 518.488 565.999 520.456C567.167 522.424 568.743 523.968 570.727 525.088C572.711 526.208 574.935 526.768 577.399 526.768ZM619.969 526H621.793V513.496L632.593 526H634.921L623.473 512.776L634.321 501.424H631.921L621.793 511.936V484.72H619.969V526ZM715.867 526H717.043L725.395 504.736L733.747 526H734.947L746.443 501.424H744.355L734.371 523.048L725.995 501.424H724.795L716.419 523.048L706.435 501.424H704.347L715.867 526ZM791.213 526.768C793.597 526.768 795.765 526.256 797.717 525.232C799.685 524.192 801.253 522.736 802.421 520.864L801.029 520.048C800.005 521.664 798.645 522.92 796.949 523.816C795.253 524.712 793.357 525.16 791.261 525.16C789.037 525.16 787.061 524.672 785.333 523.696C783.605 522.72 782.245 521.376 781.253 519.664C780.277 517.936 779.789 515.976 779.789 513.784H803.381C803.381 513.624 803.381 513.496 803.381 513.4C803.397 513.288 803.397 513.16 803.381 513.016C803.221 510.632 802.557 508.512 801.389 506.656C800.237 504.8 798.733 503.336 796.877 502.264C795.021 501.192 792.965 500.656 790.709 500.656C788.981 500.656 787.349 500.992 785.813 501.664C784.293 502.336 782.949 503.272 781.781 504.472C780.613 505.672 779.693 507.072 779.021 508.672C778.365 510.272 778.037 512 778.037 513.856C778.037 516.272 778.597 518.456 779.717 520.408C780.853 522.36 782.413 523.912 784.397 525.064C786.381 526.2 788.653 526.768 791.213 526.768ZM779.861 512.272C780.069 510.368 780.677 508.664 781.685 507.16C782.709 505.64 784.005 504.448 785.573 503.584C787.157 502.704 788.885 502.264 790.757 502.264C792.613 502.264 794.325 502.704 795.893 503.584C797.461 504.448 798.749 505.632 799.757 507.136C800.765 508.64 801.365 510.352 801.557 512.272H779.861ZM850.674 526.768C853.01 526.768 855.098 526.208 856.938 525.088C858.794 523.952 860.258 522.4 861.33 520.432C862.402 518.464 862.938 516.224 862.938 513.712C862.938 511.184 862.402 508.944 861.33 506.992C860.258 505.024 858.794 503.48 856.938 502.36C855.082 501.224 852.986 500.656 850.65 500.656C848.266 500.656 846.114 501.264 844.194 502.48C842.29 503.68 840.834 505.336 839.826 507.448V484.72H838.002V526H839.826V519.952C840.834 522.08 842.298 523.752 844.218 524.968C846.138 526.168 848.29 526.768 850.674 526.768ZM850.41 525.112C848.33 525.112 846.482 524.624 844.866 523.648C843.25 522.672 841.978 521.328 841.05 519.616C840.138 517.888 839.682 515.92 839.682 513.712C839.682 511.488 840.138 509.52 841.05 507.808C841.978 506.096 843.25 504.752 844.866 503.776C846.482 502.8 848.33 502.312 850.41 502.312C852.49 502.312 854.338 502.8 855.954 503.776C857.57 504.752 858.834 506.096 859.746 507.808C860.674 509.52 861.138 511.488 861.138 513.712C861.138 515.92 860.674 517.888 859.746 519.616C858.818 521.328 857.546 522.672 855.93 523.648C854.33 524.624 852.49 525.112 850.41 525.112ZM946.328 526.768C948.712 526.768 950.864 526.168 952.784 524.968C954.704 523.752 956.168 522.08 957.176 519.952V526H959V484.672H957.176V507.448C956.184 505.336 954.728 503.68 952.808 502.48C950.888 501.264 948.736 500.656 946.352 500.656C944.016 500.656 941.92 501.224 940.064 502.36C938.208 503.48 936.744 505.024 935.672 506.992C934.6 508.944 934.064 511.184 934.064 513.712C934.064 516.224 934.6 518.464 935.672 520.432C936.744 522.4 938.208 523.952 940.064 525.088C941.92 526.208 944.008 526.768 946.328 526.768ZM946.592 525.112C944.528 525.112 942.688 524.624 941.072 523.648C939.456 522.672 938.184 521.328 937.256 519.616C936.328 517.888 935.864 515.92 935.864 513.712C935.864 511.488 936.32 509.52 937.232 507.808C938.16 506.096 939.432 504.752 941.048 503.776C942.664 502.8 944.512 502.312 946.592 502.312C948.688 502.312 950.536 502.8 952.136 503.776C953.752 504.752 955.016 506.096 955.928 507.808C956.856 509.52 957.32 511.488 957.32 513.712C957.32 515.92 956.856 517.888 955.928 519.616C955.016 521.328 953.752 522.672 952.136 523.648C950.536 524.624 948.688 525.112 946.592 525.112ZM1007.14 526.768C1009.52 526.768 1011.69 526.256 1013.64 525.232C1015.61 524.192 1017.18 522.736 1018.34 520.864L1016.95 520.048C1015.93 521.664 1014.57 522.92 1012.87 523.816C1011.18 524.712 1009.28 525.16 1007.18 525.16C1004.96 525.16 1002.98 524.672 1001.26 523.696C999.528 522.72 998.168 521.376 997.176 519.664C996.2 517.936 995.712 515.976 995.712 513.784H1019.3C1019.3 513.624 1019.3 513.496 1019.3 513.4C1019.32 513.288 1019.32 513.16 1019.3 513.016C1019.14 510.632 1018.48 508.512 1017.31 506.656C1016.16 504.8 1014.66 503.336 1012.8 502.264C1010.94 501.192 1008.89 500.656 1006.63 500.656C1004.9 500.656 1003.27 500.992 1001.74 501.664C1000.22 502.336 998.872 503.272 997.704 504.472C996.536 505.672 995.616 507.072 994.944 508.672C994.288 510.272 993.96 512 993.96 513.856C993.96 516.272 994.52 518.456 995.64 520.408C996.776 522.36 998.336 523.912 1000.32 525.064C1002.3 526.2 1004.58 526.768 1007.14 526.768ZM995.784 512.272C995.992 510.368 996.6 508.664 997.608 507.16C998.632 505.64 999.928 504.448 1001.5 503.584C1003.08 502.704 1004.81 502.264 1006.68 502.264C1008.54 502.264 1010.25 502.704 1011.82 503.584C1013.38 504.448 1014.67 505.632 1015.68 507.136C1016.69 508.64 1017.29 510.352 1017.48 512.272H995.784ZM1061.99 526H1063.17L1074.67 501.424H1072.55L1062.57 523.072L1052.59 501.424H1050.47L1061.99 526ZM1119.48 526.768C1121.86 526.768 1124.03 526.256 1125.98 525.232C1127.95 524.192 1129.52 522.736 1130.69 520.864L1129.3 520.048C1128.27 521.664 1126.91 522.92 1125.22 523.816C1123.52 524.712 1121.62 525.16 1119.53 525.16C1117.3 525.16 1115.33 524.672 1113.6 523.696C1111.87 522.72 1110.51 521.376 1109.52 519.664C1108.54 517.936 1108.06 515.976 1108.06 513.784H1131.65C1131.65 513.624 1131.65 513.496 1131.65 513.4C1131.66 513.288 1131.66 513.16 1131.65 513.016C1131.49 510.632 1130.82 508.512 1129.66 506.656C1128.5 504.8 1127 503.336 1125.14 502.264C1123.29 501.192 1121.23 500.656 1118.98 500.656C1117.25 500.656 1115.62 500.992 1114.08 501.664C1112.56 502.336 1111.22 503.272 1110.05 504.472C1108.88 505.672 1107.96 507.072 1107.29 508.672C1106.63 510.272 1106.3 512 1106.3 513.856C1106.3 516.272 1106.86 518.456 1107.98 520.408C1109.12 522.36 1110.68 523.912 1112.66 525.064C1114.65 526.2 1116.92 526.768 1119.48 526.768ZM1108.13 512.272C1108.34 510.368 1108.94 508.664 1109.95 507.16C1110.98 505.64 1112.27 504.448 1113.84 503.584C1115.42 502.704 1117.15 502.264 1119.02 502.264C1120.88 502.264 1122.59 502.704 1124.16 503.584C1125.73 504.448 1127.02 505.632 1128.02 507.136C1129.03 508.64 1129.63 510.352 1129.82 512.272H1108.13ZM1166.18 526H1168V484.72H1166.18V526ZM1216.22 526.768C1218.73 526.768 1220.99 526.216 1222.99 525.112C1224.99 524.008 1226.57 522.48 1227.74 520.528C1228.91 518.56 1229.49 516.288 1229.49 513.712C1229.49 511.136 1228.91 508.872 1227.74 506.92C1226.57 504.952 1224.99 503.416 1222.99 502.312C1220.99 501.208 1218.73 500.656 1216.22 500.656C1213.72 500.656 1211.47 501.208 1209.47 502.312C1207.47 503.416 1205.89 504.952 1204.72 506.92C1203.55 508.872 1202.97 511.136 1202.97 513.712C1202.97 516.288 1203.55 518.56 1204.72 520.528C1205.89 522.48 1207.47 524.008 1209.47 525.112C1211.47 526.216 1213.72 526.768 1216.22 526.768ZM1216.22 525.04C1214.03 525.04 1212.07 524.56 1210.34 523.6C1208.63 522.624 1207.27 521.28 1206.28 519.568C1205.31 517.856 1204.82 515.904 1204.82 513.712C1204.82 511.504 1205.31 509.552 1206.28 507.856C1207.27 506.144 1208.63 504.808 1210.34 503.848C1212.07 502.872 1214.03 502.384 1216.22 502.384C1218.43 502.384 1220.39 502.872 1222.1 503.848C1223.83 504.808 1225.18 506.144 1226.15 507.856C1227.15 509.552 1227.64 511.504 1227.64 513.712C1227.64 515.904 1227.15 517.856 1226.15 519.568C1225.18 521.28 1223.83 522.624 1222.1 523.6C1220.39 524.56 1218.43 525.04 1216.22 525.04ZM1264.41 538.48H1266.23V519.952C1267.24 522.08 1268.7 523.752 1270.6 524.968C1272.52 526.168 1274.67 526.768 1277.03 526.768C1279.4 526.768 1281.51 526.2 1283.35 525.064C1285.2 523.928 1286.67 522.376 1287.74 520.408C1288.81 518.44 1289.35 516.208 1289.35 513.712C1289.35 511.2 1288.81 508.968 1287.74 507.016C1286.67 505.048 1285.2 503.496 1283.35 502.36C1281.49 501.224 1279.38 500.656 1277.01 500.656C1274.64 500.656 1272.5 501.256 1270.58 502.456C1268.67 503.64 1267.23 505.288 1266.23 507.4V501.424H1264.41V538.48ZM1276.82 525.112C1274.74 525.112 1272.89 524.624 1271.27 523.648C1269.66 522.672 1268.39 521.328 1267.46 519.616C1266.55 517.888 1266.09 515.92 1266.09 513.712C1266.09 511.488 1266.55 509.52 1267.46 507.808C1268.39 506.096 1269.66 504.752 1271.27 503.776C1272.89 502.8 1274.74 502.312 1276.82 502.312C1278.9 502.312 1280.75 502.8 1282.36 503.776C1283.98 504.752 1285.24 506.096 1286.15 507.808C1287.08 509.52 1287.55 511.488 1287.55 513.712C1287.55 515.92 1287.08 517.888 1286.15 519.616C1285.23 521.328 1283.95 522.672 1282.34 523.648C1280.74 524.624 1278.9 525.112 1276.82 525.112ZM1335.78 526.768C1338.16 526.768 1340.33 526.256 1342.28 525.232C1344.25 524.192 1345.82 522.736 1346.99 520.864L1345.59 520.048C1344.57 521.664 1343.21 522.92 1341.51 523.816C1339.82 524.712 1337.92 525.16 1335.83 525.16C1333.6 525.16 1331.63 524.672 1329.9 523.696C1328.17 522.72 1326.81 521.376 1325.82 519.664C1324.84 517.936 1324.35 515.976 1324.35 513.784H1347.95C1347.95 513.624 1347.95 513.496 1347.95 513.4C1347.96 513.288 1347.96 513.16 1347.95 513.016C1347.79 510.632 1347.12 508.512 1345.95 506.656C1344.8 504.8 1343.3 503.336 1341.44 502.264C1339.59 501.192 1337.53 500.656 1335.27 500.656C1333.55 500.656 1331.91 500.992 1330.38 501.664C1328.86 502.336 1327.51 503.272 1326.35 504.472C1325.18 505.672 1324.26 507.072 1323.59 508.672C1322.93 510.272 1322.6 512 1322.6 513.856C1322.6 516.272 1323.16 518.456 1324.28 520.408C1325.42 522.36 1326.98 523.912 1328.96 525.064C1330.95 526.2 1333.22 526.768 1335.78 526.768ZM1324.43 512.272C1324.63 510.368 1325.24 508.664 1326.25 507.16C1327.27 505.64 1328.57 504.448 1330.14 503.584C1331.72 502.704 1333.45 502.264 1335.32 502.264C1337.18 502.264 1338.89 502.704 1340.46 503.584C1342.03 504.448 1343.31 505.632 1344.32 507.136C1345.33 508.64 1345.93 510.352 1346.12 512.272H1324.43ZM1382.47 526H1384.3V508.696C1384.3 507.592 1384.63 506.552 1385.31 505.576C1385.98 504.6 1386.85 503.808 1387.92 503.2C1388.99 502.576 1390.13 502.264 1391.33 502.264C1392.5 502.264 1393.55 502.456 1394.5 502.84L1395.24 501.304C1394.15 500.872 1392.9 500.656 1391.47 500.656C1388.08 500.656 1385.69 502.136 1384.3 505.096V501.424H1382.47V526Z" fill="white"/>
<path d="M188.64 30.304V244H126.72V231.04C117.312 241.6 102.912 246.88 83.52 246.88C69.696 246.88 56.928 243.616 45.216 237.088C33.696 230.368 24.48 220.768 17.568 208.288C10.848 195.808 7.488 181.408 7.488 165.088C7.488 148.768 10.848 134.464 17.568 122.176C24.48 109.696 33.696 100.192 45.216 93.664C56.928 86.944 69.696 83.584 83.52 83.584C100.992 83.584 114.336 88.096 123.552 97.12V30.304H188.64ZM99.072 196.192C106.56 196.192 112.704 193.504 117.504 188.128C122.304 182.56 124.704 174.88 124.704 165.088C124.704 155.296 122.304 147.712 117.504 142.336C112.704 136.96 106.56 134.272 99.072 134.272C91.584 134.272 85.44 136.96 80.64 142.336C75.84 147.712 73.44 155.296 73.44 165.088C73.44 174.88 75.84 182.56 80.64 188.128C85.44 193.504 91.584 196.192 99.072 196.192ZM391.415 86.464L326.615 247.168C318.359 267.712 308.087 282.112 295.799 290.368C283.511 298.624 268.438 302.752 250.582 302.752C241.75 302.752 232.822 301.408 223.798 298.72C214.966 296.224 207.958 292.864 202.774 288.64L224.374 244C227.638 246.496 231.286 248.512 235.318 250.048C239.543 251.584 243.575 252.352 247.415 252.352C254.519 252.352 259.894 250.24 263.542 246.016L197.302 86.464H264.118L296.663 170.848L329.783 86.464H391.415ZM399.926 30.304H465.014V244H399.926V30.304ZM562.984 83.584C590.632 83.584 611.752 89.824 626.344 102.304C640.936 114.592 648.232 133.6 648.232 159.328V244H587.752V223.264C580.264 239.008 565.384 246.88 543.112 246.88C530.632 246.88 519.976 244.768 511.144 240.544C502.504 236.128 495.88 230.272 491.272 222.976C486.856 215.488 484.648 207.136 484.648 197.92C484.648 182.368 490.6 170.56 502.504 162.496C514.408 154.432 532.456 150.4 556.648 150.4H582.856C580.744 138.112 570.856 131.968 553.192 131.968C546.088 131.968 538.888 133.12 531.592 135.424C524.296 137.536 518.056 140.512 512.872 144.352L492.136 101.44C501.16 95.872 512.008 91.552 524.68 88.48C537.544 85.216 550.312 83.584 562.984 83.584ZM562.696 207.712C567.304 207.712 571.432 206.464 575.08 203.968C578.728 201.472 581.416 197.728 583.144 192.736V181.792H567.016C553.768 181.792 547.144 186.208 547.144 195.04C547.144 198.688 548.488 201.76 551.176 204.256C554.056 206.56 557.896 207.712 562.696 207.712ZM784.361 83.584C803.753 83.584 819.305 89.44 831.017 101.152C842.921 112.864 848.873 130.528 848.873 154.144V244H783.785V165.376C783.785 147.328 777.353 138.304 764.489 138.304C757.193 138.304 751.241 140.896 746.633 146.08C742.217 151.072 740.009 159.04 740.009 169.984V244H674.921V86.464H736.841V102.016C742.985 95.872 750.089 91.264 758.153 88.192C766.217 85.12 774.953 83.584 784.361 83.584ZM190.368 312.464V438.608C190.368 468.56 182.016 491.024 165.312 506C148.8 521.168 125.184 528.752 94.464 528.752C78.72 528.752 64.032 527.024 50.4 523.568C36.768 520.304 25.152 515.504 15.552 509.168L37.44 464.816C43.584 469.424 51.36 473.168 60.768 476.048C70.176 478.928 79.2 480.368 87.84 480.368C100.896 480.368 110.4 477.584 116.352 472.016C122.304 466.448 125.28 458.288 125.28 447.536V444.656C115.488 455.792 100.992 461.36 81.792 461.36C68.352 461.36 55.776 458.288 44.064 452.144C32.544 445.808 23.328 436.88 16.416 425.36C9.504 413.648 6.048 400.304 6.048 385.328C6.048 370.352 9.504 357.104 16.416 345.584C23.328 334.064 32.544 325.232 44.064 319.088C55.776 312.752 68.352 309.584 81.792 309.584C103.296 309.584 118.848 316.496 128.448 330.32V312.464H190.368ZM99.072 410.672C106.752 410.672 113.088 408.368 118.08 403.76C123.264 398.96 125.856 392.816 125.856 385.328C125.856 377.84 123.264 371.792 118.08 367.184C113.088 362.576 106.752 360.272 99.072 360.272C91.2 360.272 84.672 362.576 79.488 367.184C74.496 371.792 72 377.84 72 385.328C72 392.816 74.592 398.96 79.776 403.76C84.96 408.368 91.392 410.672 99.072 410.672ZM288.27 309.584C315.918 309.584 337.038 315.824 351.63 328.304C366.222 340.592 373.518 359.6 373.518 385.328V470H313.038V449.264C305.55 465.008 290.67 472.88 268.398 472.88C255.918 472.88 245.262 470.768 236.43 466.544C227.79 462.128 221.166 456.272 216.558 448.976C212.142 441.488 209.934 433.136 209.934 423.92C209.934 408.368 215.886 396.56 227.79 388.496C239.694 380.432 257.742 376.4 281.934 376.4H308.142C306.03 364.112 296.142 357.968 278.478 357.968C271.374 357.968 264.174 359.12 256.878 361.424C249.582 363.536 243.342 366.512 238.158 370.352L217.422 327.44C226.446 321.872 237.294 317.552 249.966 314.48C262.83 311.216 275.598 309.584 288.27 309.584ZM287.982 433.712C292.59 433.712 296.718 432.464 300.366 429.968C304.014 427.472 306.702 423.728 308.43 418.736V407.792H292.302C279.054 407.792 272.43 412.208 272.43 421.04C272.43 424.688 273.774 427.76 276.462 430.256C279.342 432.56 283.182 433.712 287.982 433.712ZM400.207 256.304H465.296V470H400.207V256.304ZM597.825 309.584C611.649 309.584 624.321 312.944 635.841 319.664C647.553 326.192 656.769 335.696 663.489 348.176C670.401 360.464 673.857 374.768 673.857 391.088C673.857 407.408 670.401 421.808 663.489 434.288C656.769 446.768 647.553 456.368 635.841 463.088C624.321 469.616 611.649 472.88 597.825 472.88C578.433 472.88 564.033 467.6 554.625 457.04V470H492.705V256.304H557.793V323.12C567.009 314.096 580.353 309.584 597.825 309.584ZM582.273 422.192C589.761 422.192 595.905 419.504 600.705 414.128C605.505 408.56 607.905 400.88 607.905 391.088C607.905 381.296 605.505 373.712 600.705 368.336C595.905 362.96 589.761 360.272 582.273 360.272C574.785 360.272 568.641 362.96 563.841 368.336C559.041 373.712 556.641 381.296 556.641 391.088C556.641 400.88 559.041 408.56 563.841 414.128C568.641 419.504 574.785 422.192 582.273 422.192ZM754.841 329.456C766.361 316.208 783.353 309.584 805.817 309.584V367.184C800.633 366.416 795.833 366.032 791.417 366.032C769.145 366.032 758.009 377.36 758.009 400.016V470H692.921V312.464H754.841V329.456ZM891.979 309.584C919.627 309.584 940.747 315.824 955.339 328.304C969.931 340.592 977.227 359.6 977.227 385.328V470H916.747V449.264C909.259 465.008 894.379 472.88 872.107 472.88C859.627 472.88 848.971 470.768 840.139 466.544C831.499 462.128 824.875 456.272 820.267 448.976C815.851 441.488 813.643 433.136 813.643 423.92C813.643 408.368 819.595 396.56 831.499 388.496C843.403 380.432 861.451 376.4 885.643 376.4H911.851C909.739 364.112 899.851 357.968 882.187 357.968C875.083 357.968 867.883 359.12 860.587 361.424C853.291 363.536 847.051 366.512 841.867 370.352L821.131 327.44C830.155 321.872 841.003 317.552 853.675 314.48C866.539 311.216 879.307 309.584 891.979 309.584ZM891.691 433.712C896.299 433.712 900.427 432.464 904.075 429.968C907.723 427.472 910.411 423.728 912.139 418.736V407.792H896.011C882.763 407.792 876.139 412.208 876.139 421.04C876.139 424.688 877.483 427.76 880.171 430.256C883.051 432.56 886.891 433.712 891.691 433.712ZM1003.92 312.464H1069V470H1003.92V312.464ZM1036.46 299.792C1024.75 299.792 1015.24 296.72 1007.95 290.576C1000.84 284.24 997.292 276.272 997.292 266.672C997.292 257.072 1000.84 249.2 1007.95 243.056C1015.24 236.72 1024.75 233.552 1036.46 233.552C1048.36 233.552 1057.87 236.528 1064.97 242.48C1072.08 248.432 1075.63 256.112 1075.63 265.52C1075.63 275.504 1072.08 283.76 1064.97 290.288C1057.87 296.624 1048.36 299.792 1036.46 299.792ZM1212.48 464.528C1202.69 470.096 1189.34 472.88 1172.45 472.88C1150.37 472.88 1133.37 467.6 1121.47 457.04C1109.57 446.288 1103.61 430.256 1103.61 408.944V368.624H1082.01V321.104H1103.61V277.04H1168.7V321.104H1200.96V368.624H1168.7V408.368C1168.7 413.168 1169.95 416.912 1172.45 419.6C1174.94 422.288 1178.21 423.632 1182.24 423.632C1187.81 423.632 1192.7 422.192 1196.93 419.312L1212.48 464.528ZM1336.88 309.584C1356.27 309.584 1371.83 315.44 1383.54 327.152C1395.44 338.864 1401.39 356.528 1401.39 380.144V470H1336.31V391.376C1336.31 373.328 1329.87 364.304 1317.01 364.304C1309.71 364.304 1303.76 366.896 1299.15 372.08C1294.74 377.072 1292.53 385.04 1292.53 395.984V470H1227.44V256.304H1292.53V325.136C1304.63 314.768 1319.41 309.584 1336.88 309.584Z" fill="white"/>
</svg>
