<svg width="18" height="40" viewBox="0 0 18 40" fill="none" xmlns="http://www.w3.org/2000/svg">
<path d="M3.64645 39.3536C3.84171 39.5488 4.15829 39.5488 4.35355 39.3536L7.53553 36.1716C7.7308 35.9763 7.7308 35.6597 7.53553 35.4645C7.34027 35.2692 7.02369 35.2692 6.82843 35.4645L4 38.2929L1.17157 35.4645C0.976311 35.2692 0.659728 35.2692 0.464466 35.4645C0.269204 35.6597 0.269204 35.9763 0.464466 36.1716L3.64645 39.3536ZM3.5 0L3.5 39H4.5L4.5 0L3.5 0Z" fill="white"/>
<path d="M6.946 6.57372C6.946 6.18372 6.997 5.80872 7.099 5.44872C7.207 5.08872 7.342 4.80672 7.504 4.60272L8.188 4.96272C8.038 5.17272 7.918 5.42772 7.828 5.72772C7.738 6.02772 7.693 6.33072 7.693 6.63672C7.693 7.39272 7.909 7.77072 8.341 7.77072C8.485 7.77072 8.599 7.71972 8.683 7.61772C8.767 7.51572 8.827 7.38672 8.863 7.23072C8.905 7.08072 8.95 6.86472 8.998 6.58272C9.058 6.19872 9.127 5.88372 9.205 5.63772C9.283 5.39772 9.415 5.19072 9.601 5.01672C9.787 4.84272 10.048 4.75572 10.384 4.75572C10.816 4.75572 11.161 4.93572 11.419 5.29572C11.683 5.65572 11.815 6.13872 11.815 6.74472C11.815 7.06272 11.776 7.38072 11.698 7.69872C11.62 8.01672 11.515 8.27772 11.383 8.48172L10.699 8.11272C10.951 7.72272 11.077 7.26372 11.077 6.73572C11.077 6.36972 11.017 6.09072 10.897 5.89872C10.777 5.70672 10.618 5.61072 10.42 5.61072C10.264 5.61072 10.141 5.66472 10.051 5.77272C9.961 5.88072 9.895 6.01272 9.853 6.16872C9.811 6.33072 9.763 6.55572 9.709 6.84372C9.643 7.22772 9.571 7.53672 9.493 7.77072C9.421 8.01072 9.295 8.21472 9.115 8.38272C8.935 8.55072 8.683 8.63472 8.359 8.63472C7.927 8.63472 7.582 8.44872 7.324 8.07672C7.072 7.71072 6.946 7.20972 6.946 6.57372ZM6.946 12.2435C6.946 11.7575 7.051 11.3225 7.261 10.9385C7.471 10.5605 7.759 10.2635 8.125 10.0475C8.497 9.83151 8.917 9.72351 9.385 9.72351C9.853 9.72351 10.27 9.83151 10.636 10.0475C11.008 10.2635 11.296 10.5605 11.5 10.9385C11.71 11.3225 11.815 11.7575 11.815 12.2435C11.815 12.6755 11.728 13.0595 11.554 13.3955C11.38 13.7375 11.128 14.0015 10.798 14.1875L10.375 13.5305C10.603 13.3805 10.774 13.1945 10.888 12.9725C11.002 12.7505 11.059 12.5045 11.059 12.2345C11.059 11.9225 10.99 11.6405 10.852 11.3885C10.714 11.1425 10.516 10.9475 10.258 10.8035C10.006 10.6655 9.715 10.5965 9.385 10.5965C9.049 10.5965 8.752 10.6655 8.494 10.8035C8.242 10.9475 8.047 11.1425 7.909 11.3885C7.771 11.6405 7.702 11.9225 7.702 12.2345C7.702 12.5045 7.759 12.7505 7.873 12.9725C7.987 13.1945 8.158 13.3805 8.386 13.5305L7.972 14.1875C7.642 14.0015 7.387 13.7375 7.207 13.3955C7.033 13.0595 6.946 12.6755 6.946 12.2435ZM10.969 16.5841C11.245 16.7341 11.455 16.9561 11.599 17.2501C11.743 17.5441 11.815 17.9011 11.815 18.3211H10.978C10.984 18.2731 10.987 18.2071 10.987 18.1231C10.987 17.6551 10.846 17.2861 10.564 17.0161C10.288 16.7521 9.892 16.6201 9.376 16.6201H7V15.7561H11.77V16.5841H10.969ZM6.946 21.835C6.946 21.361 7.051 20.935 7.261 20.557C7.471 20.179 7.759 19.882 8.125 19.666C8.497 19.456 8.917 19.351 9.385 19.351C9.853 19.351 10.27 19.456 10.636 19.666C11.008 19.882 11.296 20.179 11.5 20.557C11.71 20.935 11.815 21.361 11.815 21.835C11.815 22.309 11.71 22.732 11.5 23.104C11.296 23.482 11.008 23.776 10.636 23.986C10.27 24.202 9.853 24.31 9.385 24.31C8.917 24.31 8.497 24.202 8.125 23.986C7.759 23.776 7.471 23.482 7.261 23.104C7.051 22.732 6.946 22.309 6.946 21.835ZM7.702 21.835C7.702 22.141 7.771 22.414 7.909 22.654C8.053 22.9 8.251 23.092 8.503 23.23C8.761 23.368 9.055 23.437 9.385 23.437C9.715 23.437 10.006 23.368 10.258 23.23C10.516 23.092 10.714 22.9 10.852 22.654C10.99 22.414 11.059 22.141 11.059 21.835C11.059 21.529 10.99 21.253 10.852 21.007C10.714 20.767 10.516 20.575 10.258 20.431C10.006 20.293 9.715 20.224 9.385 20.224C9.055 20.224 8.761 20.293 8.503 20.431C8.251 20.575 8.053 20.767 7.909 21.007C7.771 21.253 7.702 21.529 7.702 21.835ZM13.678 25.9549V26.8189H7V25.9549H13.678ZM13.678 28.9186V29.7826H7V28.9186H13.678Z" fill="white"/>
</svg>
