<svg width="58" height="44" viewBox="0 0 58 44" fill="none" xmlns="http://www.w3.org/2000/svg">
<rect x="0.5" y="16.5" width="56" height="9" fill="white" stroke="black"/>
<rect x="0.5" y="0.5" width="56" height="9" fill="white" stroke="black"/>
<path d="M15.0004 32.974C16.1884 32.974 17.1364 33.34 17.8444 34.072C18.5644 34.804 18.9244 35.908 18.9244 37.384V43H14.8564V38.086C14.8564 36.958 14.4904 36.394 13.7584 36.394C13.3744 36.394 13.0624 36.538 12.8224 36.826C12.5944 37.114 12.4804 37.57 12.4804 38.194V43H8.41236V38.086C8.41236 36.958 8.04636 36.394 7.31436 36.394C6.93036 36.394 6.61836 36.538 6.37836 36.826C6.15036 37.114 6.03636 37.57 6.03636 38.194V43H1.96836V33.154H5.83836V34.072C6.57036 33.34 7.50036 32.974 8.62836 32.974C9.28836 32.974 9.88236 33.1 10.4104 33.352C10.9384 33.592 11.3704 33.964 11.7064 34.468C12.1024 33.988 12.5824 33.622 13.1464 33.37C13.7104 33.106 14.3284 32.974 15.0004 32.974ZM31.3408 38.068C31.3408 38.128 31.3228 38.446 31.2868 39.022H24.4468C24.5908 39.394 24.8308 39.682 25.1668 39.886C25.5028 40.078 25.9228 40.174 26.4268 40.174C26.8588 40.174 27.2188 40.12 27.5068 40.012C27.8068 39.904 28.1308 39.718 28.4788 39.454L30.6028 41.596C29.6428 42.652 28.2088 43.18 26.3008 43.18C25.1128 43.18 24.0688 42.964 23.1688 42.532C22.2688 42.088 21.5728 41.476 21.0808 40.696C20.5888 39.916 20.3428 39.04 20.3428 38.068C20.3428 37.084 20.5828 36.208 21.0628 35.44C21.5548 34.66 22.2208 34.054 23.0608 33.622C23.9128 33.19 24.8668 32.974 25.9228 32.974C26.9188 32.974 27.8248 33.172 28.6408 33.568C29.4688 33.964 30.1228 34.546 30.6028 35.314C31.0948 36.082 31.3408 37 31.3408 38.068ZM25.9588 35.746C25.5388 35.746 25.1908 35.86 24.9148 36.088C24.6388 36.316 24.4588 36.64 24.3748 37.06H27.5428C27.4588 36.652 27.2788 36.334 27.0028 36.106C26.7268 35.866 26.3788 35.746 25.9588 35.746ZM39.4646 32.974C40.6766 32.974 41.6486 33.34 42.3806 34.072C43.1246 34.804 43.4966 35.908 43.4966 37.384V43H39.4286V38.086C39.4286 36.958 39.0266 36.394 38.2226 36.394C37.7666 36.394 37.3946 36.556 37.1066 36.88C36.8306 37.192 36.6926 37.69 36.6926 38.374V43H32.6246V33.154H36.4946V34.126C36.8786 33.742 37.3226 33.454 37.8266 33.262C38.3306 33.07 38.8766 32.974 39.4646 32.974ZM56.0273 33.154V43H52.1573V42.064C51.7973 42.436 51.3773 42.718 50.8973 42.91C50.4173 43.09 49.9073 43.18 49.3673 43.18C48.1193 43.18 47.1173 42.802 46.3613 42.046C45.6053 41.278 45.2273 40.126 45.2273 38.59V33.154H49.2953V37.888C49.2953 38.56 49.4033 39.04 49.6193 39.328C49.8353 39.616 50.1533 39.76 50.5733 39.76C50.9693 39.76 51.2993 39.604 51.5633 39.292C51.8273 38.968 51.9593 38.464 51.9593 37.78V33.154H56.0273Z" fill="white"/>
<path d="M17.8444 34.072L17.485 34.4196L17.4879 34.4226L17.8444 34.072ZM18.9244 43V43.5H19.4244V43H18.9244ZM14.8564 43H14.3564V43.5H14.8564V43ZM12.8224 36.826L12.4381 36.5058L12.4303 36.5156L12.8224 36.826ZM12.4804 43V43.5H12.9804V43H12.4804ZM8.41236 43H7.91236V43.5H8.41236V43ZM6.37836 36.826L5.99413 36.5058L5.98634 36.5156L6.37836 36.826ZM6.03636 43V43.5H6.53636V43H6.03636ZM1.96836 43H1.46836V43.5H1.96836V43ZM1.96836 33.154V32.654H1.46836V33.154H1.96836ZM5.83836 33.154H6.33836V32.654H5.83836V33.154ZM5.83836 34.072H5.33836V35.2791L6.19191 34.4256L5.83836 34.072ZM10.4104 33.352L10.195 33.8033L10.2035 33.8072L10.4104 33.352ZM11.7064 34.468L11.2903 34.7453L11.6637 35.3054L12.092 34.7862L11.7064 34.468ZM13.1464 33.37L13.3504 33.8266L13.3583 33.8228L13.1464 33.37ZM15.0004 33.474C16.0774 33.474 16.8869 33.8013 17.485 34.4196L18.2038 33.7244C17.3858 32.8787 16.2994 32.474 15.0004 32.474V33.474ZM17.4879 34.4226C18.0822 35.0268 18.4244 35.9817 18.4244 37.384H19.4244C19.4244 35.8343 19.0465 34.5812 18.2008 33.7214L17.4879 34.4226ZM18.4244 37.384V43H19.4244V37.384H18.4244ZM18.9244 42.5H14.8564V43.5H18.9244V42.5ZM15.3564 43V38.086H14.3564V43H15.3564ZM15.3564 38.086C15.3564 37.4839 15.2616 36.9459 15.0013 36.5448C14.7168 36.1064 14.2759 35.894 13.7584 35.894V36.894C13.9729 36.894 14.081 36.9636 14.1624 37.0892C14.2681 37.2521 14.3564 37.5601 14.3564 38.086H15.3564ZM13.7584 35.894C13.2301 35.894 12.7759 36.1008 12.4382 36.5059L13.2065 37.1461C13.3488 36.9752 13.5186 36.894 13.7584 36.894V35.894ZM12.4303 36.5156C12.0982 36.9352 11.9804 37.5289 11.9804 38.194H12.9804C12.9804 37.6111 13.0905 37.2928 13.2144 37.1364L12.4303 36.5156ZM11.9804 38.194V43H12.9804V38.194H11.9804ZM12.4804 42.5H8.41236V43.5H12.4804V42.5ZM8.91236 43V38.086H7.91236V43H8.91236ZM8.91236 38.086C8.91236 37.4839 8.81758 36.9459 8.55729 36.5448C8.27276 36.1064 7.83186 35.894 7.31436 35.894V36.894C7.52886 36.894 7.63696 36.9636 7.71843 37.0892C7.82414 37.2521 7.91236 37.5601 7.91236 38.086H8.91236ZM7.31436 35.894C6.78613 35.894 6.33188 36.1008 5.99425 36.5059L6.76247 37.1461C6.90484 36.9752 7.07459 36.894 7.31436 36.894V35.894ZM5.98634 36.5156C5.65418 36.9352 5.53636 37.5289 5.53636 38.194H6.53636C6.53636 37.6111 6.64654 37.2928 6.77038 37.1364L5.98634 36.5156ZM5.53636 38.194V43H6.53636V38.194H5.53636ZM6.03636 42.5H1.96836V43.5H6.03636V42.5ZM2.46836 43V33.154H1.46836V43H2.46836ZM1.96836 33.654H5.83836V32.654H1.96836V33.654ZM5.33836 33.154V34.072H6.33836V33.154H5.33836ZM6.19191 34.4256C6.82127 33.7962 7.61987 33.474 8.62836 33.474V32.474C7.38085 32.474 6.31944 32.8838 5.48481 33.7184L6.19191 34.4256ZM8.62836 33.474C9.22343 33.474 9.74241 33.5872 10.195 33.8032L10.6257 32.9008C10.0223 32.6128 9.35329 32.474 8.62836 32.474V33.474ZM10.2035 33.8072C10.6427 34.0068 11.0037 34.3154 11.2903 34.7453L12.1224 34.1906C11.737 33.6126 11.2341 33.1772 10.6173 32.8968L10.2035 33.8072ZM12.092 34.7862C12.4393 34.3652 12.8573 34.0468 13.3503 33.8265L12.9424 32.9135C12.3074 33.1972 11.7654 33.6108 11.3207 34.1498L12.092 34.7862ZM13.3583 33.8228C13.8508 33.5923 14.3957 33.474 15.0004 33.474V32.474C14.261 32.474 13.5699 32.6197 12.9344 32.9172L13.3583 33.8228ZM31.2868 39.022V39.522H31.7566L31.7859 39.0532L31.2868 39.022ZM24.4468 39.022V38.522H23.7171L23.9806 39.2025L24.4468 39.022ZM25.1668 39.886L24.9073 40.3135L24.9188 40.3201L25.1668 39.886ZM27.5068 40.012L27.3375 39.5415L27.3313 39.5438L27.5068 40.012ZM28.4788 39.454L28.8339 39.1019L28.5255 38.791L28.1767 39.0557L28.4788 39.454ZM30.6028 41.596L30.9728 41.9323L31.2922 41.5811L30.9579 41.2439L30.6028 41.596ZM23.1688 42.532L22.9476 42.9804L22.9525 42.9828L23.1688 42.532ZM21.0808 40.696L21.5037 40.4292L21.0808 40.696ZM21.0628 35.44L20.6399 35.1732L20.6388 35.175L21.0628 35.44ZM23.0608 33.622L22.8347 33.176L22.8322 33.1774L23.0608 33.622ZM28.6408 33.568L28.4225 34.0178L28.4251 34.0191L28.6408 33.568ZM30.6028 35.314L30.1788 35.579L30.1818 35.5837L30.6028 35.314ZM24.9148 36.088L25.2333 36.4735L25.2333 36.4735L24.9148 36.088ZM24.3748 37.06L23.8846 36.9619L23.7649 37.56H24.3748V37.06ZM27.5428 37.06V37.56H28.1563L28.0326 36.9592L27.5428 37.06ZM27.0028 36.106L26.6746 36.4834L26.6844 36.4915L27.0028 36.106ZM30.8408 38.068C30.8408 38.066 30.8409 38.07 30.8403 38.0845C30.8399 38.0975 30.8391 38.115 30.838 38.1376C30.8359 38.1827 30.8326 38.2444 30.8281 38.3232C30.8192 38.4808 30.8058 38.7031 30.7878 38.9908L31.7859 39.0532C31.821 38.4905 31.8408 38.1484 31.8408 38.068H30.8408ZM31.2868 38.522H24.4468V39.522H31.2868V38.522ZM23.9806 39.2025C24.1637 39.6757 24.4756 40.0512 24.9074 40.3134L25.4263 39.4586C25.1861 39.3128 25.018 39.1123 24.9131 38.8415L23.9806 39.2025ZM24.9188 40.3201C25.3498 40.5664 25.8615 40.674 26.4268 40.674V39.674C25.9842 39.674 25.6559 39.5896 25.4149 39.4519L24.9188 40.3201ZM26.4268 40.674C26.8964 40.674 27.3206 40.6159 27.6824 40.4802L27.3313 39.5438C27.1171 39.6241 26.8213 39.674 26.4268 39.674V40.674ZM27.6762 40.4824C28.0378 40.3523 28.4065 40.1365 28.781 39.8523L28.1767 39.0557C27.8552 39.2995 27.5759 39.4557 27.3375 39.5416L27.6762 40.4824ZM28.1238 39.8061L30.2478 41.9481L30.9579 41.2439L28.8339 39.1019L28.1238 39.8061ZM30.2329 41.2597C29.3966 42.1796 28.1177 42.68 26.3008 42.68V43.68C28.3 43.68 29.8891 43.1244 30.9728 41.9323L30.2329 41.2597ZM26.3008 42.68C25.1737 42.68 24.206 42.4752 23.3852 42.0812L22.9525 42.9828C23.9316 43.4528 25.052 43.68 26.3008 43.68V42.68ZM23.3901 42.0836C22.5652 41.6767 21.9422 41.1244 21.5037 40.4292L20.6579 40.9628C21.2034 41.8276 21.9725 42.4993 22.9476 42.9804L23.3901 42.0836ZM21.5037 40.4292C21.0649 39.7335 20.8428 38.9509 20.8428 38.068H19.8428C19.8428 39.1291 20.1128 40.0985 20.6579 40.9628L21.5037 40.4292ZM20.8428 38.068C20.8428 37.1693 21.0608 36.3867 21.4868 35.705L20.6388 35.175C20.1049 36.0293 19.8428 36.9987 19.8428 38.068H20.8428ZM21.4857 35.7068C21.9289 35.0042 22.527 34.4588 23.2895 34.0666L22.8322 33.1774C21.9147 33.6492 21.1808 34.3158 20.6399 35.1732L21.4857 35.7068ZM23.287 34.0679C24.0617 33.6751 24.937 33.474 25.9228 33.474V32.474C24.7967 32.474 23.7639 32.7049 22.8347 33.176L23.287 34.0679ZM25.9228 33.474C26.8507 33.474 27.681 33.658 28.4225 34.0178L28.8591 33.1182C27.9686 32.686 26.9869 32.474 25.9228 32.474V33.474ZM28.4251 34.0191C29.1686 34.3747 29.7499 34.8927 30.1788 35.579L31.0268 35.049C30.4958 34.1993 29.769 33.5533 28.8566 33.1169L28.4251 34.0191ZM30.1818 35.5837C30.614 36.2583 30.8408 37.079 30.8408 38.068H31.8408C31.8408 36.921 31.5757 35.9057 31.0239 35.0443L30.1818 35.5837ZM25.9588 35.246C25.4437 35.246 24.977 35.3881 24.5964 35.7025L25.2333 36.4735C25.4046 36.3319 25.634 36.246 25.9588 36.246V35.246ZM24.5964 35.7025C24.2152 36.0174 23.9865 36.4523 23.8846 36.9619L24.8651 37.1581C24.9312 36.8277 25.0625 36.6146 25.2333 36.4735L24.5964 35.7025ZM24.3748 37.56H27.5428V36.56H24.3748V37.56ZM28.0326 36.9592C27.9295 36.4587 27.6991 36.0326 27.3213 35.7205L26.6844 36.4915C26.8586 36.6354 26.9882 36.8453 27.0531 37.1608L28.0326 36.9592ZM27.3309 35.7287C26.9506 35.3979 26.4804 35.246 25.9588 35.246V36.246C26.2773 36.246 26.5031 36.3341 26.6748 36.4833L27.3309 35.7287ZM42.3806 34.072L42.027 34.4256L42.0299 34.4284L42.3806 34.072ZM43.4966 43V43.5H43.9966V43H43.4966ZM39.4286 43H38.9286V43.5H39.4286V43ZM37.1066 36.88L36.7329 36.5478L36.7321 36.5487L37.1066 36.88ZM36.6926 43V43.5H37.1926V43H36.6926ZM32.6246 43H32.1246V43.5H32.6246V43ZM32.6246 33.154V32.654H32.1246V33.154H32.6246ZM36.4946 33.154H36.9946V32.654H36.4946V33.154ZM36.4946 34.126H35.9946V35.3331L36.8482 34.4796L36.4946 34.126ZM37.8266 33.262L38.0046 33.7292L38.0046 33.7292L37.8266 33.262ZM39.4646 33.474C40.5684 33.474 41.4048 33.8033 42.0271 34.4256L42.7342 33.7184C41.8924 32.8767 40.7848 32.474 39.4646 32.474V33.474ZM42.0299 34.4284C42.6446 35.0332 42.9966 35.9858 42.9966 37.384H43.9966C43.9966 35.8302 43.6046 34.5748 42.7313 33.7156L42.0299 34.4284ZM42.9966 37.384V43H43.9966V37.384H42.9966ZM43.4966 42.5H39.4286V43.5H43.4966V42.5ZM39.9286 43V38.086H38.9286V43H39.9286ZM39.9286 38.086C39.9286 37.4777 39.8229 36.9318 39.5343 36.5268C39.2234 36.0906 38.7565 35.894 38.2226 35.894V36.894C38.4928 36.894 38.6288 36.9794 38.72 37.1072C38.8333 37.2662 38.9286 37.5663 38.9286 38.086H39.9286ZM38.2226 35.894C37.6322 35.894 37.1212 36.1109 36.7329 36.5478L37.4803 37.2122C37.668 37.0011 37.901 36.894 38.2226 36.894V35.894ZM36.7321 36.5487C36.3372 36.9951 36.1926 37.6412 36.1926 38.374H37.1926C37.1926 37.7388 37.324 37.3889 37.4811 37.2113L36.7321 36.5487ZM36.1926 38.374V43H37.1926V38.374H36.1926ZM36.6926 42.5H32.6246V43.5H36.6926V42.5ZM33.1246 43V33.154H32.1246V43H33.1246ZM32.6246 33.654H36.4946V32.654H32.6246V33.654ZM35.9946 33.154V34.126H36.9946V33.154H35.9946ZM36.8482 34.4796C37.1827 34.145 37.567 33.896 38.0046 33.7292L37.6486 32.7948C37.0783 33.012 36.5746 33.339 36.1411 33.7724L36.8482 34.4796ZM38.0046 33.7292C38.4468 33.5608 38.9319 33.474 39.4646 33.474V32.474C38.8213 32.474 38.2144 32.5792 37.6486 32.7948L38.0046 33.7292ZM56.0273 33.154H56.5273V32.654H56.0273V33.154ZM56.0273 43V43.5H56.5273V43H56.0273ZM52.1573 43H51.6573V43.5H52.1573V43ZM52.1573 42.064H52.6573V40.8283L51.798 41.7163L52.1573 42.064ZM50.8973 42.91L51.0729 43.3783L51.083 43.3742L50.8973 42.91ZM46.3613 42.046L46.0049 42.3968L46.0077 42.3996L46.3613 42.046ZM45.2273 33.154V32.654H44.7273V33.154H45.2273ZM49.2953 33.154H49.7953V32.654H49.2953V33.154ZM49.6193 39.328L50.0193 39.028L50.0193 39.028L49.6193 39.328ZM51.5633 39.292L51.945 39.615L51.9509 39.6078L51.5633 39.292ZM51.9593 33.154V32.654H51.4593V33.154H51.9593ZM55.5273 33.154V43H56.5273V33.154H55.5273ZM56.0273 42.5H52.1573V43.5H56.0273V42.5ZM52.6573 43V42.064H51.6573V43H52.6573ZM51.798 41.7163C51.4869 42.0377 51.1261 42.28 50.7116 42.4458L51.083 43.3742C51.6285 43.156 52.1076 42.8343 52.5166 42.4117L51.798 41.7163ZM50.7217 42.4418C50.3008 42.5997 49.8506 42.68 49.3673 42.68V43.68C49.964 43.68 50.5338 43.5803 51.0728 43.3782L50.7217 42.4418ZM49.3673 42.68C48.2279 42.68 47.3614 42.339 46.7148 41.6924L46.0077 42.3996C46.8732 43.265 48.0106 43.68 49.3673 43.68V42.68ZM46.7176 41.6952C46.0867 41.0543 45.7273 40.0509 45.7273 38.59H44.7273C44.7273 40.2011 45.1238 41.5017 46.005 42.3968L46.7176 41.6952ZM45.7273 38.59V33.154H44.7273V38.59H45.7273ZM45.2273 33.654H49.2953V32.654H45.2273V33.654ZM48.7953 33.154V37.888H49.7953V33.154H48.7953ZM48.7953 37.888C48.7953 38.5871 48.9025 39.2056 49.2193 39.628L50.0193 39.028C49.9041 38.8744 49.7953 38.5329 49.7953 37.888H48.7953ZM49.2193 39.628C49.5462 40.0639 50.0257 40.26 50.5733 40.26V39.26C50.2809 39.26 50.1243 39.1681 50.0193 39.028L49.2193 39.628ZM50.5733 40.26C51.1217 40.26 51.5895 40.0351 51.945 39.615L51.1816 38.969C51.0091 39.1729 50.8169 39.26 50.5733 39.26V40.26ZM51.9509 39.6078C52.3212 39.1533 52.4593 38.5112 52.4593 37.78H51.4593C51.4593 38.4168 51.3333 38.7827 51.1757 38.9762L51.9509 39.6078ZM52.4593 37.78V33.154H51.4593V37.78H52.4593ZM51.9593 33.654H56.0273V32.654H51.9593V33.654Z" fill="black"/>
</svg>
